<svg width="1700" height="800" viewBox="0 0 1700 800" fill="none" xmlns="http://www.w3.org/2000/svg">
<path d="M121.801 213.091H267.256V249.455H158.165V467.636H267.256V504H121.801V213.091ZM267.256 249.455H303.619V467.636H267.256V249.455ZM449.216 322.182H376.489V285.818H485.58V467.636H558.307V504H376.489V467.636H449.216V322.182ZM449.216 213.091H485.58V249.455H449.216V213.091ZM631.176 285.818H703.903V322.182H667.54V504H631.176V285.818ZM703.903 322.182H740.267V504H703.903V322.182ZM776.631 322.182H740.267V285.818H776.631V322.182ZM776.631 322.182H812.994V504H776.631V322.182ZM885.864 213.091H922.227V467.636H1067.68V504H885.864V213.091ZM1140.55 213.091H1322.37V249.455H1176.91V322.182H1286.01V358.545H1176.91V467.636H1322.37V504H1140.55V213.091ZM1395.24 213.091H1540.69V249.455H1431.6V467.636H1540.69V504H1395.24V213.091ZM1540.69 249.455H1577.06V467.636H1540.69V249.455Z" fill="#FEFEFE"/>
<path d="M697.636 562.909H709.273V586.182H720.909V597.818H709.273V656H697.636V562.909ZM744.182 597.818H732.545V586.182H744.182V562.909H755.818V656H744.182V597.818ZM720.909 597.818H732.545V621.091H720.909V597.818ZM802.409 644.364V574.545H779.136V562.909H837.318V574.545H814.045V644.364H837.318V656H779.136V644.364H802.409ZM860.636 562.909H872.273V586.182H883.909V597.818H872.273V656H860.636V562.909ZM907.182 621.091H895.545V609.455H907.182V562.909H918.818V656H907.182V621.091ZM895.545 609.455H883.909V597.818H895.545V609.455ZM965.409 644.364V574.545H942.136V562.909H1000.32V574.545H977.045V644.364H1000.32V656H942.136V644.364H965.409Z" fill="#FEFEFE"/>
<rect x="16" y="16" width="1668" height="768" stroke="#FEFEFE" stroke-width="32"/>
<path d="M600 660H0V558H600V660ZM45.5 632.5H82.5V619.5H45.5V632.5ZM98.5 632.5H145.5V586.5H98.5V632.5ZM164.5 632.5H201.5V619.5H164.5V632.5ZM220.5 632.5H267.5V586.5H220.5V632.5ZM286.5 632.5H323.5V619.5H286.5V632.5ZM342.5 632.5H389.5V586.5H342.5V632.5ZM408.5 632.5H445.5V619.5H408.5V632.5ZM464.5 632.5H511.5V586.5H464.5V632.5ZM530.5 619.5V632.5H567.5V619.5H530.5ZM140.5 627.5H103.5V591.5H140.5V627.5ZM262.5 627.5H225.5V591.5H262.5V627.5ZM384.5 627.5H347.5V591.5H384.5V627.5ZM506.5 627.5H469.5V591.5H506.5V627.5ZM109.5 621.5H134.5V597.5H109.5V621.5ZM231.5 621.5H256.5V597.5H231.5V621.5ZM353.5 621.5H378.5V597.5H353.5V621.5ZM475.5 621.5H500.5V597.5H475.5V621.5ZM45.5 599.5H82.5V586.5H45.5V599.5ZM164.5 599.5H201.5V586.5H164.5V599.5ZM286.5 599.5H323.5V586.5H286.5V599.5ZM408.5 599.5H445.5V586.5H408.5V599.5ZM530.5 599.5H567.5V586.5H530.5V599.5Z" fill="#FEFEFE"/>
<path d="M1100 660H1700V558H1100V660ZM1654.5 632.5H1617.5V619.5H1654.5V632.5ZM1601.5 632.5H1554.5V586.5H1601.5V632.5ZM1535.5 632.5H1498.5V619.5H1535.5V632.5ZM1479.5 632.5H1432.5V586.5H1479.5V632.5ZM1413.5 632.5H1376.5V619.5H1413.5V632.5ZM1357.5 632.5H1310.5V586.5H1357.5V632.5ZM1291.5 632.5H1254.5V619.5H1291.5V632.5ZM1235.5 632.5H1188.5V586.5H1235.5V632.5ZM1169.5 619.5V632.5H1132.5V619.5H1169.5ZM1559.5 627.5H1596.5V591.5H1559.5V627.5ZM1437.5 627.5H1474.5V591.5H1437.5V627.5ZM1315.5 627.5H1352.5V591.5H1315.5V627.5ZM1193.5 627.5H1230.5V591.5H1193.5V627.5ZM1590.5 621.5H1565.5V597.5H1590.5V621.5ZM1468.5 621.5H1443.5V597.5H1468.5V621.5ZM1346.5 621.5H1321.5V597.5H1346.5V621.5ZM1224.5 621.5H1199.5V597.5H1224.5V621.5ZM1654.5 599.5H1617.5V586.5H1654.5V599.5ZM1535.5 599.5H1498.5V586.5H1535.5V599.5ZM1413.5 599.5H1376.5V586.5H1413.5V599.5ZM1291.5 599.5H1254.5V586.5H1291.5V599.5ZM1169.5 599.5H1132.5V586.5H1169.5V599.5Z" fill="#FEFEFE"/>
</svg>
